<svg id="Capa_1" enable-background="new 0 0 512 512" height="512" viewBox="0 0 512 512" width="512" xmlns="http://www.w3.org/2000/svg"><g><path d="m31 497c0 8.291 6.709 15 15 15h95.722l-.017-61.042-62.673-65.356c-27.039 17.069-48.032 48.67-48.032 111.398z" fill="#ffccb3"/><path d="m432.97 385.602-62.805 65.605.102 60.793h95.733c8.291 0 15-6.709 15-15 0-62.726-20.991-94.329-48.03-111.398z" fill="#fb9"/><path d="m373.437 363.666c-40.854-10.063-65.947-17.622-72.437-56.001h-45-45c-6.489 38.379-31.582 45.938-72.437 56.001-21.042 5.176-41.4 10.492-59.531 21.936l62.69 126.398h114.278 114.267l62.703-126.398c-18.089-11.422-38.374-16.73-59.533-21.936z" fill="#575f64"/><path d="m432.97 385.602c-18.089-11.422-38.373-16.73-59.533-21.936-40.854-10.063-65.947-17.622-72.437-56.001h-45v204.335h114.267z" fill="#474f54"/><path d="m341.474 264.774h-85.474-85.474c-12.963 12.481-19.526 29.707-19.526 51.226 0 54.36 44.092 135 105 135s105-80.64 105-135c0-21.519-6.562-38.745-19.526-51.226z" fill="#474f54"/><path d="m361 316c0-21.519-6.563-38.745-19.526-51.226h-85.474v186.226c60.908 0 105-80.64 105-135z" fill="#32393f"/><path d="m256 312.323h-43.711c2.64 38.286 17.278 108.677 43.594 108.677h.059c.02 0 .038-.011.059-.011 25.789-.216 41.369-74.654 43.711-108.666z" fill="#ffccb3"/><path d="m299.711 312.323h-43.711v108.666c25.789-.216 41.369-74.654 43.711-108.666z" fill="#fb9"/><path d="m337.876 120h-81.876-105v106c0 57.99 47.01 105 105 105s105-47.01 105-105v-76z" fill="#fdc"/><path d="m361 226v-76l-23.124-30h-81.876v211c57.99 0 105-47.01 105-105z" fill="#ffccb3"/><path d="m294.297 30.839c-9.256-13.709-22.751-23.546-38.297-28.036-5.934-1.714-12.103-2.803-18.545-2.803h-11.455c-33.545 0-51.167 8.804-66.709 16.582-14.399 7.207-26.836 13.418-53.291 13.418-8.291 0-15 6.709-15 15 0 57.891 47.109 105 105 105h60c11.567 0 22.02-4.508 30-11.704 7.98 7.196 18.433 11.704 30 11.704h45v-45c0-38.511-29.291-69.97-66.703-74.161z" fill="#ffb64c"/><path d="m316 150h45v-45c0-38.511-29.291-69.97-66.703-74.161-9.256-13.709-22.751-23.546-38.297-28.036v147.197c11.567 0 22.02-4.508 30-11.704 7.98 7.196 18.433 11.704 30 11.704z" fill="#ff9100"/></g></svg>